<svg xmlns="http://www.w3.org/2000/svg" version="1.1" xmlns:xlink="http://www.w3.org/1999/xlink" xmlns:svgjs="http://svgjs.dev/svgjs" width="1000" height="1000" viewBox="0 0 1000 1000"><rect width="1000" height="1000" fill="#ffffff"></rect><g transform="matrix(0.7,0,0,0.7,149.57575757575756,282.1265587044535)"><svg viewBox="0 0 396 247" data-background-color="#c8c8c8" preserveAspectRatio="xMidYMid meet" height="623" width="1000" xmlns="http://www.w3.org/2000/svg" xmlns:xlink="http://www.w3.org/1999/xlink"><defs></defs><g id="tight-bounds" transform="matrix(1,0,0,1,0.2400000000000091,-0.09999999999999432)"><svg viewBox="0 0 395.52 247.2" height="247.2" width="395.52"><g><svg></svg></g><g><svg viewBox="0 0 395.52 247.2" height="247.2" width="395.52"><g transform="matrix(1,0,0,1,91.00447943213224,47.215199999999996)"><svg viewBox="0 0 213.5110411357355 152.7696" height="152.7696" width="213.5110411357355"><g><svg viewBox="0 0 213.5110411357355 152.7696" height="152.7696" width="213.5110411357355"><g><svg viewBox="0 0 244.43136 174.8934429621218" height="152.7696" width="213.5110411357355"><g><svg viewBox="0 0 244.43136 174.8934429621218" height="174.8934429621218" width="244.43136"><g><svg viewBox="0 0 244.43136 174.8934429621218" height="174.8934429621218" width="244.43136"><g><svg viewBox="0 0 244.43136 114.067968" height="114.067968" width="244.43136"><g transform="matrix(1,0,0,1,0,0)"><svg width="244.43136" viewBox="0 -50 93.75 43.75" height="114.067968" data-palette-color="#000000"><path d="M12.5-6.25L0-6.25 0-50 12.5-50 12.5-43.75 18.75-43.75 18.75-37.5 25-37.5 25-43.75 31.25-43.75 31.25-50 43.75-50 43.75-6.25 31.25-6.25 31.25-31.25 25-31.25 25-18.75 18.75-18.75 18.75-31.25 12.5-31.25 12.5-6.25ZM87.5-6.25L50-6.25 50-50 87.5-50 87.5-43.75 93.75-43.75 93.75-31.25 87.5-31.25 87.5-25 93.75-25 93.75-12.5 87.5-12.5 87.5-6.25ZM62.5-43.75L62.5-31.25 81.25-31.25 81.25-43.75 62.5-43.75ZM62.5-25L62.5-12.5 81.25-12.5 81.25-25 62.5-25Z" opacity="1" transform="matrix(1,0,0,1,0,0)" fill="#000000" class="undefined-text-0" data-fill-palette-color="primary" id="text-0"></path></svg></g></svg></g><g transform="matrix(1,0,0,1,0,140.99667761356798)"><svg viewBox="0 0 244.43136 33.896765348553835" height="33.896765348553835" width="244.43136"><g transform="matrix(1,0,0,1,0,0)"><svg width="244.43136" viewBox="4.599999904632568 -31.610000610351562 231.22999572753906 32.0720100402832" height="33.896765348553835" data-palette-color="#000000"><path d="M4.6-1.9L4.6-29.48Q4.6-30.69 5.75-31.21L5.75-31.21Q6.09-31.26 6.72-31.32 7.36-31.38 7.9-30.92 8.45-30.46 8.45-29.48L8.45-29.48 8.45-1.9Q8.45-0.52 7.24-0.11L7.24-0.11Q6.9 0 6.32 0 5.75 0 5.17-0.46 4.6-0.92 4.6-1.9L4.6-1.9ZM23.73-28.1L15.17-28.1Q14.31-28.1 13.91-28.62 13.5-29.14 13.5-29.74 13.5-30.34 13.91-30.86 14.31-31.38 15.17-31.38L15.17-31.38 36.15-31.38Q36.95-31.38 37.35-30.86 37.76-30.34 37.76-29.74 37.76-29.14 37.33-28.62 36.89-28.1 36.15-28.1L36.15-28.1 27.64-28.1 27.64-1.9Q27.64-0.57 26.49-0.11L26.49-0.11Q26.15 0 25.57 0 25 0 24.37-0.46 23.73-0.92 23.73-1.9L23.73-1.9 23.73-28.1ZM56.95-23.45L56.95-23.45Q56.95-22.24 57.75-21.18 58.56-20.11 59.82-19.43 61.08-18.74 62.69-18.22 64.3-17.7 66.08-17.13 67.87-16.55 69.59-15.86 71.31-15.17 72.58-14.14L72.58-14.14Q75.34-11.9 75.34-8.05L75.34-8.05Q75.34-6.21 74.48-4.57 73.61-2.93 72.06-1.84L72.06-1.84Q68.9 0.46 63.61 0.46L63.61 0.46Q58.61 0.46 54.82-2.07L54.82-2.07Q52.46-3.56 52.46-4.6L52.46-4.6Q52.46-5.52 53.38-6.09L53.38-6.09Q53.61-6.32 53.96-6.32 54.3-6.32 54.71-6.03 55.11-5.75 55.65-5.34 56.2-4.94 57.03-4.45 57.87-3.97 58.79-3.56L58.79-3.56Q61.08-2.64 63.27-2.7 65.45-2.76 66.77-3.05 68.1-3.33 69.13-4.02L69.13-4.02Q71.31-5.52 71.37-7.82L71.37-7.82Q71.37-10.69 68.56-12.24L68.56-12.24Q67.29-12.93 65.71-13.48 64.13-14.02 62.38-14.54 60.62-15.06 58.9-15.8 57.18-16.55 55.85-17.59L55.85-17.59Q53.04-19.83 53.04-23.33L53.04-23.33Q53.04-25.17 53.93-26.78 54.82-28.39 56.37-29.43L56.37-29.43Q59.36-31.55 63.84-31.61L63.84-31.61Q70.34-31.61 74.3-27.41L74.3-27.41Q74.53-27.07 74.53-26.64 74.53-26.21 74.5-25.92 74.48-25.63 74.19-25.34L74.19-25.34Q73.79-24.83 73.12-24.83 72.46-24.83 71.72-25.69L71.72-25.69Q69.82-27.07 68.67-27.47L68.67-27.47Q66.37-28.39 64.19-28.39L64.19-28.39Q61.37-28.39 59.36-27.24L59.36-27.24Q56.95-25.86 56.95-23.45ZM79.65-10.86L79.65-10.86Q79.65-12.93 80.31-15 80.97-17.07 82.35-18.74L82.35-18.74Q85.22-22.24 90.51-22.24 95.79-22.24 98.67-18.74L98.67-18.74Q101.37-15.4 101.37-10.92L101.37-10.92Q101.37-6.38 98.67-3.1L98.67-3.1Q95.79 0.46 90.51 0.46 85.22 0.46 82.35-3.1L82.35-3.1Q79.65-6.32 79.65-10.86ZM83.38-10.86L83.38-10.86Q83.38-9.48 83.75-7.93 84.13-6.38 85.1-5.06L85.1-5.06Q87.06-2.24 90.51-2.24L90.51-2.24Q94.13-2.24 95.91-5.06L95.91-5.06Q97.58-7.7 97.58-10.92L97.58-10.92Q97.58-14.25 95.91-16.67L95.91-16.67Q94.07-19.54 90.51-19.54L90.51-19.54Q87.06-19.54 85.1-16.67L85.1-16.67Q83.38-14.31 83.38-10.86ZM106.6-1.72L106.6-29.54Q106.6-30.46 107.17-30.86 107.75-31.26 108.21-31.26 108.67-31.26 108.95-31.21 109.24-31.15 109.53-30.86L109.53-30.86Q110.16-30.46 110.16-29.54L110.16-29.54 110.16-1.72Q110.16-0.86 109.59-0.43 109.01 0 108.32 0L108.32 0Q107.63 0 107.11-0.43 106.6-0.86 106.6-1.72L106.6-1.72ZM135.56-20.11L135.56-1.61Q135.56-0.8 134.96-0.4 134.35 0 133.92 0 133.49 0 133.15-0.09 132.8-0.17 132.57-0.46L132.57-0.46Q132-0.86 132-1.61L132-1.61 132-3.62Q130.62-0.57 126.94 0.17L126.94 0.17Q125.79 0.46 124.47 0.46 123.15 0.46 121.71 0 120.27-0.46 119.24-1.49L119.24-1.49Q116.94-3.68 116.94-8.05L116.94-8.05 116.94-20.11Q116.94-20.92 117.46-21.38 117.97-21.84 118.66-21.84L118.66-21.84Q119.35-21.84 119.87-21.38 120.39-20.92 120.39-20.11L120.39-20.11 120.39-7.76Q120.39-4.66 121.65-3.45L121.65-3.45Q122.92-2.24 125.44-2.24L125.44-2.24Q129.7-2.24 131.31-5.69L131.31-5.69Q131.94-6.9 132-8.45L132-8.45 132-20.11Q132-20.92 132.57-21.38 133.15-21.84 133.84-21.84L133.84-21.84Q134.53-21.84 135.04-21.38 135.56-20.92 135.56-20.11L135.56-20.11ZM153.78-1.26L153.78-1.26Q153.78 0.46 149.7 0.46L149.7 0.46Q146.65 0.46 145.38-1.21L145.38-1.21Q144.01-2.99 143.89-7.07L143.89-7.07 143.89-19.14 141.36-19.14Q140.67-19.14 140.27-19.57 139.87-20 139.87-20.46L139.87-20.46Q139.87-20.92 140.21-21.38 140.56-21.84 141.36-21.84L141.36-21.84 144.12-21.84 144.35-28.05Q144.47-28.74 144.98-29.11 145.5-29.48 146.07-29.48 146.65-29.48 147.05-29.14 147.45-28.79 147.45-28.05L147.45-28.05 147.45-21.84 151.42-21.84Q152.11-21.84 152.48-21.38 152.86-20.92 152.86-20.46L152.86-20.46Q152.86-19.89 152.48-19.51 152.11-19.14 151.42-19.14L151.42-19.14 147.45-19.14 147.45-8.97Q147.45-4.71 147.74-3.82 148.03-2.93 148.66-2.59 149.29-2.24 150.21-2.24L150.21-2.24 152.45-2.41Q153.09-2.41 153.43-2.01 153.78-1.61 153.78-1.26ZM161.82-29.43L161.82-29.43Q161.82-28.51 161.19-27.93 160.55-27.36 159.41-27.36 158.26-27.36 157.62-27.93 156.99-28.51 156.99-29.43L156.99-29.43Q156.99-30.23 157.62-30.8 158.26-31.38 159.43-31.38 160.61-31.38 161.22-30.8 161.82-30.23 161.82-29.43ZM157.68-1.72L157.68-20Q157.68-20.86 158.26-21.35 158.83-21.84 159.29-21.84 159.75-21.84 160.04-21.7 160.32-21.55 160.61-21.26L160.61-21.26Q161.24-20.86 161.24-20L161.24-20 161.24-1.72Q161.24-0.86 160.67-0.43 160.09 0 159.41 0L159.41 0Q158.72 0 158.2-0.43 157.68-0.86 157.68-1.72L157.68-1.72ZM166.47-10.86L166.47-10.86Q166.47-12.93 167.13-15 167.79-17.07 169.17-18.74L169.17-18.74Q172.05-22.24 177.33-22.24 182.62-22.24 185.49-18.74L185.49-18.74Q188.2-15.4 188.2-10.92L188.2-10.92Q188.2-6.38 185.49-3.1L185.49-3.1Q182.62 0.46 177.33 0.46 172.05 0.46 169.17-3.1L169.17-3.1Q166.47-6.32 166.47-10.86ZM170.21-10.86L170.21-10.86Q170.21-9.48 170.58-7.93 170.95-6.38 171.93-5.06L171.93-5.06Q173.89-2.24 177.33-2.24L177.33-2.24Q180.95-2.24 182.74-5.06L182.74-5.06Q184.4-7.7 184.4-10.92L184.4-10.92Q184.4-14.25 182.74-16.67L182.74-16.67Q180.9-19.54 177.33-19.54L177.33-19.54Q173.89-19.54 171.93-16.67L171.93-16.67Q170.21-14.31 170.21-10.86ZM193.42-1.61L193.42-20.17Q193.42-20.92 194-21.38 194.57-21.84 195.15-21.84L195.15-21.84Q196.35-21.84 196.7-20.92 197.04-20 196.87-18.16L196.87-18.16Q197.56-19.89 199.86-21.15L199.86-21.15Q201.87-22.24 203.85-22.24 205.84-22.24 207.22-21.75 208.6-21.26 209.75-20.23L209.75-20.23Q212.04-18.05 212.04-13.79L212.04-13.79 212.04-1.61Q212.04-0.8 211.44-0.4 210.84 0 210.2 0L210.2 0Q209.52 0 209-0.43 208.48-0.86 208.48-1.61L208.48-1.61 208.48-14.02Q208.48-16.72 206.99-18.16L206.99-18.16Q205.61-19.54 203.54-19.54L203.54-19.54Q200.78-19.54 198.83-17.93L198.83-17.93Q196.87-16.21 196.87-12.64L196.87-12.64 196.87-1.61Q196.87-0.8 196.3-0.4 195.72 0 195.03 0L195.03 0Q194.34 0 193.88-0.43 193.42-0.86 193.42-1.61L193.42-1.61ZM226.52-19.54L226.52-19.54Q221.52-19.54 221.64-16.38L221.64-16.38Q221.64-14.37 224.51-13.62L224.51-13.62Q225.49-13.33 226.61-13.1 227.73-12.87 229.05-12.56 230.37-12.24 231.75-11.72L231.75-11.72Q233.71-11.15 234.77-9.8 235.83-8.45 235.83-6.55L235.83-6.55Q235.83-3.1 232.9-1.21L232.9-1.21Q230.26 0.52 226.24 0.46L226.24 0.46Q223.25 0.46 220.37-0.57L220.37-0.57Q219.23-1.03 218.54-1.67 217.85-2.3 217.85-2.87 217.85-3.45 218.22-3.79 218.59-4.14 219.11-4.14 219.63-4.14 220.29-3.85 220.95-3.56 221.98-3.22L221.98-3.22Q224.63-2.24 226.24-2.24 227.85-2.24 228.82-2.44 229.8-2.64 230.6-3.1L230.6-3.1Q232.33-4.25 232.33-6.09L232.33-6.09Q232.33-7.41 231.5-8.13 230.66-8.85 229.37-9.25 228.08-9.66 226.81-9.94 225.55-10.23 224.28-10.52 223.02-10.8 221.87-11.21 220.72-11.61 219.92-12.3L219.92-12.3Q217.96-13.68 217.96-16.21L217.96-16.21Q217.96-19.43 220.66-20.86L220.66-20.86Q222.9-22.24 226.58-22.24L226.58-22.24Q230.32-22.24 232.56-21.15L232.56-21.15Q234.46-20.17 234.46-18.97L234.46-18.97Q234.46-18.51 234.08-18.22 233.71-17.93 233.25-17.93L233.25-17.93Q232.39-17.93 231.96-18.22 231.52-18.51 231.01-18.79 230.49-19.08 229.8-19.2L229.8-19.2Q228.54-19.54 226.52-19.54Z" opacity="1" transform="matrix(1,0,0,1,0,0)" fill="#000000" class="undefined-text-1" data-fill-palette-color="secondary" id="text-1"></path></svg></g></svg></g></svg></g></svg></g></svg></g></svg></g></svg></g><path d="M268.514 41.215L268.514 0 21.314 0 21.314 247.2 268.514 247.2 268.514 205.985 259.529 205.985 259.529 238.214 30.3 238.214 30.3 8.986 259.529 8.986 259.529 41.215Z" fill="#000000" stroke="transparent" data-fill-palette-color="primary"></path></svg></g></svg><rect width="395.52" height="247.2" fill="none" stroke="none" visibility="hidden"></rect></g></svg></g></svg>